<?xml version="1.0" encoding="UTF-8"?>
<!DOCTYPE svg PUBLIC "-//W3C//DTD SVG 1.1//EN" "http://www.w3.org/Graphics/SVG/1.1/DTD/svg11.dtd">
<svg version="1.1" xmlns="http://www.w3.org/2000/svg" xmlns:xlink="http://www.w3.org/1999/xlink" x="0" y="0" width="1012.021" height="646.707" viewBox="0, 0, 1012.021, 646.707">
  <g id="Layer_1">
    <path d="M1012.021,608.726 C992.078,673.756 902.331,655.934 737.306,550.199 L889.57,298.626 C945.094,396.29 1004.734,492.365 1012.021,608.726 z" fill="#AA310C" id="path5414"/>
    <path d="M745.944,305.717 C648.357,382.507 641.679,573.579 612.37,565.165 C561.606,546.573 515.378,432.977 595.332,292.557 C685.674,133.895 798.339,55.992 834.494,134.119 C898.971,273.419 806.872,217.146 745.944,305.717 z" fill="#E46E24" id="path5398" opacity="0.874"/>
    <path d="M1.291,348.683 C-11.883,415.407 75.624,442.14 271.036,426.992 L255.804,133.321 C160.702,193.129 62.73,249.591 1.291,348.683 z" fill="#AA310C" id="path5408"/>
    <path d="M315.626,82.991 C271.918,85.042 211.991,137.654 188.982,261.197 C168.619,370.544 209.793,428.777 238.143,427.37 C239.312,427.23 240.397,426.432 241.426,425.144 C216.737,408.078 192.965,353.1 209.436,264.683 C231.255,147.517 286.268,94.177 329.171,87.226 C325.643,85.476 321.226,84.034 315.626,82.991 z" fill="#EEAC3C" id="path5423"/>
    <path d="M350.759,214.444 C328.394,304.912 362.806,443.169 333.322,448.286 C283.349,454.992 194.057,399.944 199.923,278.711 C206.559,141.735 298.441,74.227 375.525,64.021 C495.015,65.155 360.769,148.35 350.759,214.444 z" fill="#DA5F1E" id="path5406"/>
    <path d="M449.851,48.88 C381.23,59.884 299.421,132.705 293.513,280.468 C288.284,411.242 367.783,470.623 412.282,463.392 C414.102,463.014 415.628,461.866 416.937,460.165 C373.67,445.255 322.493,386.217 326.721,280.468 C332.321,140.335 406.178,67.64 472.328,51.113 C466.315,49.776 458.972,48.985 449.851,48.88 z" fill="#FCE170" id="path5416"/>
    <path d="M467.428,217.839 C446.155,322.076 478.88,481.382 450.845,487.276 C403.315,495.004 318.405,431.577 323.984,291.892 C330.298,134.063 417.672,56.279 490.976,44.526 C604.614,45.828 476.948,141.693 467.428,217.839 z" fill="#DA5F1E" id="path5404"/>
    <path d="M446.316,267.154 C426.247,377.383 433.975,472.401 447.793,485.078 C454.702,486.051 458.188,480.864 458.811,479.954 C448.486,448.762 439.631,370.39 455.864,281.259 C477.368,163.155 497.066,109.073 506.572,74.969 C537.89,-12.538 461.863,185.002 446.316,267.154 z" fill="#FCE170" id="path5431"/>
    <path d="M630.584,237.215 C570.384,301.846 571.539,461.628 561.305,520.211 C552.821,568.812 496.254,539.251 474.372,528.198 C426.114,503.824 456.648,390.858 449.305,229.431 C440.443,34.614 573.296,-19.608 666.424,5.886 C849.964,56.125 756.248,102.304 630.584,237.215 z" fill="#C74F1C" id="path5395"/>
    <path d="M801.279,363.18 C713.905,428.84 707.927,592.227 681.691,585.038 C636.24,569.141 594.849,472.002 666.431,351.924 C747.316,216.243 848.186,149.631 880.561,216.432 C938.283,335.558 855.823,287.433 801.279,363.18 z" fill="#F18C31" id="path5410"/>
    <path d="M832.016,432.697 C767.532,481.158 763.122,601.747 743.753,596.441 C710.209,584.709 679.661,513.015 732.497,424.388 C792.193,324.253 912.32,255.513 936.211,304.814 C978.813,392.734 872.273,376.795 832.016,432.697 z" fill="#EA7926" id="path5412"/>
    <path d="M580.756,298.817 C518.148,413.75 544.694,524.656 587.793,537.879 C589.592,538.341 592.238,535.688 594.163,534.743 C561.977,502.207 551.98,404.282 602.597,311.343 C669.685,188.185 728.718,134.767 768.209,112.713 C794.846,97.838 749.645,101.841 740.297,107.764 C684.967,143.087 607.995,245.71 580.756,298.817 z" fill="#FCE170" id="path5421"/>
    <path d="M914.546,286.88 C872.777,273.86 798.472,302.812 734.604,411.039 C678.079,506.827 696.853,575.63 723.978,584.002 C725.126,584.275 726.421,583.904 727.828,583.036 C710.461,558.557 706.919,498.763 752.629,421.308 C813.2,318.667 883.137,287.356 925.83,295.497 C923.114,292.641 919.453,289.778 914.546,286.88 z" fill="#EEAC3C" id="path5425"/>
    <path d="M859.456,192.1 C812.759,177.547 729.69,209.908 658.29,330.896 C595.101,437.982 616.094,514.898 646.411,524.25 C647.692,524.558 649.141,524.138 650.716,523.172 C631.305,495.809 627.343,428.966 678.443,342.376 C746.154,227.632 824.344,192.632 872.07,201.725 C869.032,198.533 864.937,195.334 859.456,192.1 z" fill="#FCE170" id="path5427"/>
    <path d="M977.098,468.208 C957.414,453.375 912.509,454.628 858.091,499.918 C809.924,540 806.83,580.054 819.626,589.644 C820.186,590.008 820.942,590.05 821.852,589.861 C817.288,573.579 826.759,541.197 865.7,508.787 C917.311,465.835 960.347,462.503 981.445,474.921 C980.549,472.891 979.149,470.679 977.098,468.208 z" fill="#EEAC3C" id="path5471"/>
    <path d="M109.917,223.621 C86.544,233.575 64.564,274.322 77.017,346.219 C88.042,409.849 122.223,433.222 137.371,426.726 C137.98,426.411 138.414,425.76 138.708,424.85 C121.824,420.552 97.765,395.436 88.854,343.979 C77.045,275.799 96.204,235.647 118.149,223.187 C115.874,222.949 113.179,223.054 109.917,223.621 z" fill="#EEAC3C" id="path5473"/>
    <path d="M994.647,516.116 C977.931,503.516 939.788,504.587 893.567,543.052 C852.659,577.093 850.027,611.12 860.898,619.261 C861.367,619.569 862.011,619.611 862.788,619.45 C858.91,605.618 866.953,578.108 900.035,550.584 C943.869,514.1 980.423,511.265 998.343,521.814 C997.58,520.092 996.397,518.216 994.647,516.116 z" fill="#7C1600" id="path5475"/>
    <path d="M39.861,301.405 C28.374,307.201 18.595,328.523 27.247,364.468 C34.912,396.276 52.958,406.972 60.406,403.192 C60.7,403.017 60.896,402.674 61.022,402.198 C52.342,400.581 39.357,388.674 33.162,362.949 C24.951,328.866 33.323,307.929 44.012,300.915 C42.85,300.866 41.492,300.999 39.861,301.405 z" fill="#7C1600" id="path5477"/>
  </g>
</svg>
